G04*
G04 #@! TF.GenerationSoftware,Altium Limited,Altium Designer,21.1.1 (26)*
G04*
G04 Layer_Color=32896*
%FSLAX42Y42*%
%MOMM*%
G71*
G04*
G04 #@! TF.SameCoordinates,92C87620-ECAA-41DB-B671-3A6BB777ED9A*
G04*
G04*
G04 #@! TF.FilePolarity,Positive*
G04*
G01*
G75*
%ADD10C,0.25*%
%ADD11C,0.20*%
%ADD14C,0.10*%
%ADD78C,0.40*%
D10*
X4222Y3283D02*
G03*
X4222Y3283I-12J0D01*
G01*
X4647Y3761D02*
G03*
X4647Y3761I-12J0D01*
G01*
X4523Y4903D02*
G03*
X4523Y4903I-12J0D01*
G01*
D11*
X4070Y3835D02*
X4092D01*
X4070Y3385D02*
X4092D01*
X4328Y3835D02*
X4350D01*
X4328Y3385D02*
X4350D01*
X4070D02*
Y3835D01*
X4350Y3385D02*
Y3835D01*
X4970Y3600D02*
X5115D01*
X4970Y4640D02*
X5115D01*
X4970Y3600D02*
Y4640D01*
X4594Y4947D02*
X4676D01*
Y5013D01*
X4594Y5239D02*
X4676D01*
Y5173D02*
Y5239D01*
X4263Y4938D02*
X4391D01*
X4263Y5072D02*
X4391D01*
X4514Y5328D02*
X4641D01*
X4514Y5462D02*
X4641D01*
X4240Y4108D02*
Y4447D01*
X4060Y4108D02*
Y4447D01*
X2770Y5247D02*
X2810D01*
X2770Y5178D02*
X2810D01*
X2805Y6535D02*
X2845D01*
X2805Y6465D02*
X2845D01*
D14*
X4366Y5118D02*
Y5167D01*
X4341D01*
X4333Y5159D01*
Y5142D01*
X4341Y5134D01*
X4366D01*
X4350D02*
X4333Y5118D01*
X4283D02*
X4316D01*
X4283Y5151D01*
Y5159D01*
X4291Y5167D01*
X4308D01*
X4316Y5159D01*
X4621Y5513D02*
Y5562D01*
X4596D01*
X4588Y5554D01*
Y5538D01*
X4596Y5529D01*
X4621D01*
X4604D02*
X4588Y5513D01*
X4571D02*
X4554D01*
X4563D01*
Y5562D01*
X4571Y5554D01*
X4337Y4566D02*
X4345Y4574D01*
X4362D01*
X4370Y4566D01*
Y4533D01*
X4362Y4524D01*
X4345D01*
X4337Y4533D01*
X4320Y4516D02*
X4287D01*
X4270Y4524D02*
X4253D01*
X4262D01*
Y4557D01*
X4270D01*
X4228Y4524D02*
Y4557D01*
X4203D01*
X4195Y4549D01*
Y4524D01*
X4178Y4516D02*
X4145D01*
X4128Y4574D02*
X4095D01*
Y4566D01*
X4128Y4533D01*
Y4524D01*
X4078Y4566D02*
X4070Y4574D01*
X4053D01*
X4045Y4566D01*
Y4557D01*
X4053Y4549D01*
X4045Y4541D01*
Y4533D01*
X4053Y4524D01*
X4070D01*
X4078Y4533D01*
Y4541D01*
X4070Y4549D01*
X4078Y4557D01*
Y4566D01*
X4070Y4549D02*
X4053D01*
X4028Y4566D02*
X4020Y4574D01*
X4003D01*
X3995Y4566D01*
Y4533D01*
X4003Y4524D01*
X4020D01*
X4028Y4533D01*
Y4566D01*
X3978Y4533D02*
X3970Y4524D01*
X3953D01*
X3945Y4533D01*
Y4566D01*
X3953Y4574D01*
X3970D01*
X3978Y4566D01*
Y4557D01*
X3970Y4549D01*
X3945D01*
X4534Y3647D02*
X4501D01*
X4517D01*
Y3598D01*
X4484Y3631D02*
X4467Y3598D01*
X4451Y3631D01*
X4434Y3598D02*
X4409D01*
X4401Y3606D01*
X4409Y3614D01*
X4426D01*
X4434Y3622D01*
X4426Y3631D01*
X4401D01*
X3817Y3555D02*
X3850D01*
Y3530D01*
X3833D01*
X3850D01*
Y3505D01*
X3800D02*
X3783D01*
X3792D01*
Y3538D01*
X3800D01*
X3758Y3505D02*
Y3538D01*
X3733D01*
X3725Y3530D01*
Y3505D01*
D78*
X4060Y4040D02*
X4240D01*
M02*
