G04*
G04 #@! TF.GenerationSoftware,Altium Limited,Altium Designer,21.1.1 (26)*
G04*
G04 Layer_Color=8421504*
%FSLAX42Y42*%
%MOMM*%
G71*
G04*
G04 #@! TF.SameCoordinates,92C87620-ECAA-41DB-B671-3A6BB777ED9A*
G04*
G04*
G04 #@! TF.FilePolarity,Positive*
G04*
G01*
G75*
%ADD15C,0.40*%
%ADD16R,0.85X0.90*%
%ADD17R,1.35X0.95*%
%ADD18R,0.03X0.03*%
%ADD19R,0.24X0.60*%
%ADD20R,0.60X0.24*%
%ADD21R,2.48X1.55*%
%ADD22R,0.30X0.65*%
%ADD23R,3.30X2.50*%
%ADD24R,1.10X1.35*%
%ADD25R,1.60X3.00*%
%ADD26R,0.90X0.70*%
%ADD27R,1.90X1.50*%
%ADD28R,2.90X5.40*%
%ADD29R,0.45X0.45*%
%ADD30R,0.47X0.47*%
%ADD31R,0.85X1.35*%
G36*
X5353Y5304D02*
X5353Y5305D01*
Y5450D01*
X5353Y5451D01*
X5353Y5452D01*
X5353Y5453D01*
X5354Y5454D01*
X5355Y5454D01*
X5355Y5455D01*
X5356Y5455D01*
X5357Y5455D01*
X5503D01*
X5504Y5455D01*
X5505Y5455D01*
X5505Y5454D01*
X5506Y5454D01*
X5507Y5453D01*
X5507Y5452D01*
X5507Y5451D01*
X5508Y5450D01*
Y5305D01*
X5507Y5304D01*
X5507Y5303D01*
X5507Y5302D01*
X5506Y5301D01*
X5505Y5301D01*
X5505Y5300D01*
X5504Y5300D01*
X5503Y5300D01*
X5357D01*
X5356Y5300D01*
X5355Y5300D01*
X5355Y5301D01*
X5354Y5301D01*
X5353Y5302D01*
X5353Y5303D01*
X5353Y5304D01*
D02*
G37*
D15*
X5203Y5311D02*
D03*
X5497Y5058D02*
D03*
X5642Y5303D02*
D03*
X4725Y4117D02*
D03*
X5642Y5172D02*
D03*
X5858Y5455D02*
D03*
D16*
X5397Y4842D02*
D03*
X5528D02*
D03*
X5558Y4635D02*
D03*
X5428D02*
D03*
X5203Y5003D02*
D03*
X5333D02*
D03*
D17*
X4928Y5350D02*
D03*
Y5200D02*
D03*
D18*
X5433Y5378D02*
D03*
D19*
X5355Y5517D02*
D03*
X5405D02*
D03*
X5455D02*
D03*
X5505D02*
D03*
Y5238D02*
D03*
X5455D02*
D03*
X5405D02*
D03*
X5355D02*
D03*
D20*
X5570Y5453D02*
D03*
Y5403D02*
D03*
Y5353D02*
D03*
Y5303D02*
D03*
X5290D02*
D03*
Y5353D02*
D03*
Y5403D02*
D03*
Y5453D02*
D03*
D21*
X5005Y4112D02*
D03*
D22*
X5105Y3958D02*
D03*
X5055D02*
D03*
X5005D02*
D03*
X4955D02*
D03*
X4905D02*
D03*
Y4267D02*
D03*
X4955D02*
D03*
X5005D02*
D03*
X5055D02*
D03*
X5105D02*
D03*
D23*
X5600Y7045D02*
D03*
Y6355D02*
D03*
X3300Y5300D02*
D03*
Y5990D02*
D03*
D24*
X5135Y4522D02*
D03*
X5275D02*
D03*
X4970Y4522D02*
D03*
X4830D02*
D03*
D25*
X3997Y7305D02*
D03*
Y7745D02*
D03*
D26*
X5160Y3830D02*
D03*
Y3680D02*
D03*
D27*
X4631Y5156D02*
D03*
Y4856D02*
D03*
X4372Y5155D02*
D03*
Y4855D02*
D03*
D28*
X4897Y6355D02*
D03*
X3928D02*
D03*
D29*
X5900Y4978D02*
D03*
X5820D02*
D03*
X5695Y5120D02*
D03*
X5775D02*
D03*
D30*
X5660Y4875D02*
D03*
X5740D02*
D03*
D31*
X5918Y5289D02*
D03*
X5753D02*
D03*
M02*
