G04*
G04 #@! TF.GenerationSoftware,Altium Limited,Altium Designer,21.1.1 (26)*
G04*
G04 Layer_Physical_Order=2*
G04 Layer_Color=16711680*
%FSLAX42Y42*%
%MOMM*%
G71*
G04*
G04 #@! TF.SameCoordinates,92C87620-ECAA-41DB-B671-3A6BB777ED9A*
G04*
G04*
G04 #@! TF.FilePolarity,Positive*
G04*
G01*
G75*
%ADD10C,0.25*%
%ADD30R,0.47X0.47*%
%ADD52C,0.30*%
%ADD54C,0.60*%
%ADD56R,1.60X1.60*%
%ADD57C,1.60*%
%ADD58R,2.10X1.50*%
%ADD59R,1.50X2.10*%
%ADD60C,1.50*%
%ADD61R,1.50X1.50*%
%ADD62C,0.50*%
%ADD63C,1.27*%
%ADD64R,1.55X2.40*%
%ADD65R,3.80X1.00*%
%ADD66R,9.30X10.40*%
%ADD67R,0.90X0.80*%
%ADD68R,1.15X1.55*%
%ADD69R,0.70X0.90*%
%ADD70R,1.50X3.20*%
G36*
X6230Y3180D02*
X2467Y3180D01*
Y7935D01*
X6230Y7935D01*
Y3180D01*
D02*
G37*
%LPC*%
G36*
X3490Y7630D02*
X3290D01*
Y7370D01*
X3490D01*
Y7630D01*
D02*
G37*
G36*
X2890D02*
X2690D01*
Y7370D01*
X2890D01*
Y7630D01*
D02*
G37*
G36*
X3965Y7270D02*
Y7222D01*
X4012D01*
X4001Y7242D01*
X3985Y7259D01*
X3965Y7270D01*
D02*
G37*
G36*
X3895D02*
X3875Y7259D01*
X3859Y7242D01*
X3848Y7222D01*
X3895D01*
Y7270D01*
D02*
G37*
G36*
X4012Y7153D02*
X3965D01*
Y7105D01*
X3985Y7116D01*
X4001Y7133D01*
X4012Y7153D01*
D02*
G37*
G36*
X3895D02*
X3848D01*
X3859Y7133D01*
X3875Y7116D01*
X3895Y7105D01*
Y7153D01*
D02*
G37*
G36*
X3220Y7130D02*
X3125D01*
Y7065D01*
X3220D01*
Y7130D01*
D02*
G37*
G36*
X3055D02*
X2960D01*
Y7065D01*
X3055D01*
Y7130D01*
D02*
G37*
G36*
X3220Y6995D02*
X3125D01*
Y6930D01*
X3220D01*
Y6995D01*
D02*
G37*
G36*
X3055D02*
X2960D01*
Y6930D01*
X3055D01*
Y6995D01*
D02*
G37*
G36*
X2997Y6608D02*
X2968D01*
X2939Y6601D01*
X2929Y6595D01*
X2665D01*
Y6405D01*
X2679D01*
Y6361D01*
X2675Y6359D01*
X2656Y6339D01*
X2642Y6315D01*
X2635Y6288D01*
Y6261D01*
X2642Y6234D01*
X2656Y6210D01*
X2675Y6190D01*
X2699Y6176D01*
X2726Y6169D01*
X2754D01*
X2781Y6176D01*
X2805Y6190D01*
X2824Y6210D01*
X2838Y6234D01*
X2845Y6261D01*
Y6288D01*
X2838Y6315D01*
X2824Y6339D01*
X2811Y6353D01*
Y6405D01*
X2912D01*
X2913Y6404D01*
X2939Y6389D01*
X2968Y6381D01*
X2997D01*
X3026Y6389D01*
X3052Y6404D01*
X3073Y6425D01*
X3088Y6451D01*
X3096Y6480D01*
Y6510D01*
X3088Y6539D01*
X3073Y6565D01*
X3052Y6586D01*
X3026Y6601D01*
X2997Y6608D01*
D02*
G37*
G36*
X2845Y6126D02*
X2635D01*
Y5915D01*
X2845D01*
Y6126D01*
D02*
G37*
G36*
X2840Y5785D02*
X2630D01*
Y5574D01*
X2840D01*
Y5785D01*
D02*
G37*
G36*
X5524Y5473D02*
Y5472D01*
X5525D01*
X5524Y5473D01*
D02*
G37*
G36*
X5336D02*
X5335Y5472D01*
X5336D01*
Y5473D01*
D02*
G37*
G36*
X5454D02*
X5446Y5465D01*
X5439Y5447D01*
Y5428D01*
X5421D01*
Y5447D01*
X5414Y5465D01*
X5406Y5473D01*
Y5437D01*
X5371D01*
Y5401D01*
X5335D01*
X5342Y5394D01*
X5361Y5386D01*
X5380D01*
Y5369D01*
X5361D01*
X5342Y5361D01*
X5335Y5353D01*
X5371D01*
Y5319D01*
X5406D01*
Y5282D01*
X5414Y5290D01*
X5421Y5308D01*
Y5327D01*
X5439D01*
Y5308D01*
X5446Y5290D01*
X5454Y5282D01*
Y5319D01*
X5489D01*
Y5353D01*
X5525D01*
X5518Y5361D01*
X5499Y5369D01*
X5480D01*
Y5386D01*
X5499D01*
X5518Y5394D01*
X5525Y5401D01*
X5489D01*
Y5437D01*
X5454D01*
Y5473D01*
D02*
G37*
G36*
X6017Y5370D02*
Y5322D01*
X6065D01*
X6054Y5342D01*
X6037Y5359D01*
X6017Y5370D01*
D02*
G37*
G36*
X5525Y5283D02*
X5524D01*
Y5282D01*
X5525Y5283D01*
D02*
G37*
G36*
X5336D02*
X5335D01*
X5336Y5282D01*
Y5283D01*
D02*
G37*
G36*
X2900Y5283D02*
Y5247D01*
X2925D01*
Y5283D01*
X2900D01*
D02*
G37*
G36*
X4476Y5254D02*
X4440D01*
Y5223D01*
X4476D01*
Y5254D01*
D02*
G37*
G36*
X6065Y5253D02*
X6017D01*
Y5205D01*
X6037Y5216D01*
X6054Y5233D01*
X6065Y5253D01*
D02*
G37*
G36*
X5947Y5370D02*
X5928Y5359D01*
X5921Y5351D01*
X5738D01*
X5713Y5346D01*
X5692Y5333D01*
X5516Y5156D01*
X5419D01*
X5412Y5164D01*
X5392Y5175D01*
Y5092D01*
Y5010D01*
X5412Y5021D01*
X5419Y5029D01*
X5542D01*
X5567Y5034D01*
X5588Y5047D01*
X5764Y5224D01*
X5921D01*
X5928Y5216D01*
X5947Y5205D01*
Y5288D01*
Y5370D01*
D02*
G37*
G36*
X5890Y5192D02*
Y5145D01*
X5937D01*
X5926Y5165D01*
X5910Y5181D01*
X5890Y5192D01*
D02*
G37*
G36*
X5820D02*
X5800Y5181D01*
X5784Y5165D01*
X5773Y5145D01*
X5820D01*
Y5192D01*
D02*
G37*
G36*
X2925Y5178D02*
X2900D01*
Y5142D01*
X2925D01*
Y5178D01*
D02*
G37*
G36*
X5322Y5175D02*
X5303Y5164D01*
X5286Y5147D01*
X5275Y5128D01*
X5322D01*
Y5175D01*
D02*
G37*
G36*
X4581Y5153D02*
X4546D01*
Y5123D01*
X4581D01*
Y5153D01*
D02*
G37*
G36*
X4476D02*
X4440D01*
Y5123D01*
X4476D01*
Y5153D01*
D02*
G37*
G36*
X4033Y5322D02*
X3832D01*
Y5121D01*
X4033D01*
Y5322D01*
D02*
G37*
G36*
X2749Y5531D02*
X2721D01*
X2694Y5524D01*
X2670Y5510D01*
X2651Y5490D01*
X2637Y5466D01*
X2630Y5439D01*
Y5412D01*
X2637Y5385D01*
X2651Y5361D01*
X2661Y5350D01*
Y5308D01*
X2630D01*
Y5117D01*
X2800D01*
Y5131D01*
X2805Y5142D01*
X2813Y5142D01*
X2830D01*
Y5212D01*
Y5283D01*
X2805D01*
X2800Y5294D01*
Y5308D01*
X2789D01*
Y5335D01*
X2800Y5341D01*
X2819Y5361D01*
X2833Y5385D01*
X2840Y5412D01*
Y5439D01*
X2833Y5466D01*
X2819Y5490D01*
X2800Y5510D01*
X2776Y5524D01*
X2749Y5531D01*
D02*
G37*
G36*
X4487Y5511D02*
X4458D01*
X4429Y5503D01*
X4403Y5488D01*
X4382Y5467D01*
X4367Y5441D01*
X4359Y5412D01*
Y5383D01*
X4367Y5354D01*
X4382Y5328D01*
X4403Y5307D01*
X4429Y5292D01*
X4458Y5284D01*
X4487D01*
X4516Y5292D01*
X4541Y5306D01*
X4548Y5304D01*
X4554Y5302D01*
Y5295D01*
X4559Y5270D01*
X4562Y5265D01*
X4556Y5254D01*
X4546D01*
Y5223D01*
X4588D01*
X4594Y5226D01*
X4624Y5195D01*
X4620Y5183D01*
X4616D01*
Y5095D01*
X4606Y5088D01*
X4603Y5088D01*
X4416D01*
Y5079D01*
X4213D01*
Y5052D01*
X4205Y5046D01*
X3965Y4806D01*
X3602D01*
X3582Y4826D01*
X3556Y4841D01*
X3527Y4849D01*
X3498D01*
X3469Y4841D01*
X3443Y4826D01*
X3422Y4805D01*
X3407Y4779D01*
X3399Y4750D01*
Y4720D01*
X3407Y4691D01*
X3422Y4665D01*
X3443Y4644D01*
X3469Y4629D01*
X3498Y4622D01*
X3527D01*
X3556Y4629D01*
X3582Y4644D01*
X3603Y4665D01*
X3609Y4674D01*
X3992D01*
X4009Y4677D01*
X4025Y4683D01*
X4038Y4694D01*
X4276Y4931D01*
X4416D01*
Y4908D01*
X4606D01*
Y4997D01*
X4616Y5003D01*
X4619Y5003D01*
X4806D01*
Y5028D01*
X4818Y5029D01*
X4834Y5036D01*
X4840Y5040D01*
X4851Y5045D01*
X4868Y5029D01*
X4888Y5018D01*
Y5100D01*
X4922D01*
Y5135D01*
X5005D01*
X5002Y5140D01*
X5009Y5151D01*
X5049D01*
X5052Y5147D01*
X5073Y5125D01*
X5099Y5111D01*
X5128Y5103D01*
X5157D01*
X5186Y5111D01*
X5212Y5125D01*
X5233Y5147D01*
X5248Y5172D01*
X5256Y5201D01*
Y5231D01*
X5248Y5260D01*
X5233Y5286D01*
X5212Y5307D01*
X5186Y5322D01*
X5157Y5330D01*
X5128D01*
X5099Y5322D01*
X5073Y5307D01*
X5052Y5286D01*
X5049Y5282D01*
X4892D01*
X4875Y5280D01*
X4859Y5273D01*
X4846Y5263D01*
X4789Y5206D01*
X4775Y5210D01*
X4774Y5218D01*
X4768Y5234D01*
X4757Y5248D01*
X4695Y5310D01*
X4691Y5321D01*
X4691D01*
X4691Y5321D01*
Y5469D01*
X4562D01*
X4542Y5488D01*
X4516Y5503D01*
X4487Y5511D01*
D02*
G37*
G36*
X5937Y5075D02*
X5890D01*
Y5028D01*
X5910Y5039D01*
X5926Y5055D01*
X5937Y5075D01*
D02*
G37*
G36*
X5820D02*
X5773D01*
X5784Y5055D01*
X5800Y5039D01*
X5820Y5028D01*
Y5075D01*
D02*
G37*
G36*
X5005Y5065D02*
X4958D01*
Y5018D01*
X4977Y5029D01*
X4994Y5045D01*
X5005Y5065D01*
D02*
G37*
G36*
X5322Y5058D02*
X5275D01*
X5286Y5038D01*
X5303Y5021D01*
X5322Y5010D01*
Y5058D01*
D02*
G37*
G36*
X3967Y5062D02*
Y5003D01*
X4027D01*
X4026Y5006D01*
X4013Y5029D01*
X3994Y5048D01*
X3971Y5061D01*
X3967Y5062D01*
D02*
G37*
G36*
X3897D02*
X3894Y5061D01*
X3871Y5048D01*
X3852Y5029D01*
X3839Y5006D01*
X3838Y5003D01*
X3897D01*
Y5062D01*
D02*
G37*
G36*
Y4933D02*
X3838D01*
X3839Y4929D01*
X3852Y4906D01*
X3871Y4887D01*
X3894Y4874D01*
X3897Y4873D01*
Y4933D01*
D02*
G37*
G36*
X4027D02*
X3967D01*
Y4873D01*
X3971Y4874D01*
X3994Y4887D01*
X4013Y4906D01*
X4026Y4929D01*
X4027Y4933D01*
D02*
G37*
G36*
X5280Y4870D02*
Y4822D01*
X5327D01*
X5316Y4842D01*
X5300Y4859D01*
X5280Y4870D01*
D02*
G37*
G36*
X5210D02*
X5190Y4859D01*
X5174Y4842D01*
X5163Y4822D01*
X5210D01*
Y4870D01*
D02*
G37*
G36*
X4591Y4859D02*
X4572Y4848D01*
X4555Y4831D01*
X4544Y4812D01*
X4591D01*
Y4859D01*
D02*
G37*
G36*
X4400Y4837D02*
Y4790D01*
X4447D01*
X4436Y4810D01*
X4420Y4826D01*
X4400Y4837D01*
D02*
G37*
G36*
X4330D02*
X4310Y4826D01*
X4294Y4810D01*
X4283Y4790D01*
X4330D01*
Y4837D01*
D02*
G37*
G36*
X5042Y4906D02*
X5013D01*
X4984Y4898D01*
X4958Y4883D01*
X4948Y4873D01*
X4862D01*
X4842Y4870D01*
X4822Y4862D01*
X4805Y4850D01*
X4728Y4772D01*
X4715Y4777D01*
Y4788D01*
X4709Y4811D01*
X4697Y4831D01*
X4681Y4848D01*
X4661Y4859D01*
Y4777D01*
X4626D01*
Y4742D01*
X4544D01*
X4555Y4722D01*
X4572Y4705D01*
X4592Y4694D01*
X4614Y4688D01*
X4623D01*
X4628Y4675D01*
X4562Y4608D01*
X4549Y4591D01*
X4541Y4572D01*
X4538Y4551D01*
Y4474D01*
X4395D01*
Y4274D01*
X4613D01*
X4619Y4273D01*
X4624Y4274D01*
X4875D01*
Y4474D01*
X4699D01*
Y4518D01*
X4775Y4594D01*
X4786Y4602D01*
X4896Y4712D01*
X4948D01*
X4958Y4702D01*
X4984Y4687D01*
X5013Y4679D01*
X5042D01*
X5071Y4687D01*
X5097Y4702D01*
X5118Y4723D01*
X5133Y4749D01*
X5141Y4778D01*
Y4807D01*
X5133Y4836D01*
X5118Y4862D01*
X5097Y4883D01*
X5071Y4898D01*
X5042Y4906D01*
D02*
G37*
G36*
X5327Y4753D02*
X5280D01*
Y4705D01*
X5300Y4716D01*
X5316Y4733D01*
X5327Y4753D01*
D02*
G37*
G36*
X5210D02*
X5163D01*
X5174Y4733D01*
X5190Y4716D01*
X5210Y4705D01*
Y4753D01*
D02*
G37*
G36*
X4447Y4720D02*
X4400D01*
Y4673D01*
X4420Y4684D01*
X4436Y4700D01*
X4447Y4720D01*
D02*
G37*
G36*
X4330D02*
X4283D01*
X4294Y4700D01*
X4310Y4684D01*
X4330Y4673D01*
Y4720D01*
D02*
G37*
G36*
X4233Y4490D02*
X4185D01*
Y4422D01*
X4233D01*
Y4490D01*
D02*
G37*
G36*
X4115D02*
X4067D01*
Y4422D01*
X4115D01*
Y4490D01*
D02*
G37*
G36*
X6110Y4665D02*
X5655D01*
Y4155D01*
X6110D01*
Y4665D01*
D02*
G37*
G36*
X5585D02*
X5130D01*
Y4155D01*
X5585D01*
Y4665D01*
D02*
G37*
G36*
X2900Y4230D02*
X2700D01*
Y3970D01*
X2900D01*
Y4230D01*
D02*
G37*
G36*
X3230Y3730D02*
X3135D01*
Y3665D01*
X3230D01*
Y3730D01*
D02*
G37*
G36*
X3065D02*
X2970D01*
Y3665D01*
X3065D01*
Y3730D01*
D02*
G37*
G36*
X6110Y4085D02*
X5655D01*
Y3575D01*
X6110D01*
Y4085D01*
D02*
G37*
G36*
X5585D02*
X5130D01*
Y3575D01*
X5585D01*
Y4085D01*
D02*
G37*
G36*
X3230Y3595D02*
X3135D01*
Y3530D01*
X3230D01*
Y3595D01*
D02*
G37*
G36*
X3065D02*
X2970D01*
Y3530D01*
X3065D01*
Y3595D01*
D02*
G37*
G36*
X3254Y4451D02*
X3235Y4447D01*
X3218Y4436D01*
X3206Y4424D01*
X3195Y4408D01*
X3192Y4388D01*
Y3853D01*
X3195Y3833D01*
X3206Y3816D01*
X3223Y3805D01*
X3242Y3802D01*
X3247D01*
Y3570D01*
X3250Y3550D01*
X3261Y3534D01*
X3278Y3523D01*
X3297Y3519D01*
X3381D01*
X3388Y3520D01*
X3395Y3521D01*
X3397Y3522D01*
X3400Y3523D01*
X3406Y3527D01*
X3412Y3530D01*
X3414Y3532D01*
X3417Y3534D01*
X3421Y3540D01*
X3425Y3545D01*
X3426Y3548D01*
X3428Y3550D01*
X3429Y3557D01*
X3429Y3558D01*
X3536D01*
X3536Y3557D01*
X3537Y3550D01*
X3539Y3548D01*
X3540Y3545D01*
X3544Y3540D01*
X3548Y3534D01*
X3551Y3532D01*
X3553Y3530D01*
X3559Y3527D01*
X3565Y3523D01*
X3568Y3522D01*
X3571Y3521D01*
X3578Y3520D01*
X3584Y3519D01*
X3720D01*
X3738Y3523D01*
X3753Y3513D01*
X3772Y3509D01*
X4107Y3509D01*
Y3492D01*
X4313D01*
Y3509D01*
X4838Y3509D01*
X4857Y3513D01*
X4874Y3524D01*
X4885Y3540D01*
X4888Y3560D01*
X4888Y3791D01*
X4885Y3810D01*
X4875Y3824D01*
Y3966D01*
X4463D01*
X4462Y3967D01*
X4459Y3974D01*
X4457Y3976D01*
X4456Y3977D01*
X4449Y3982D01*
X4443Y3987D01*
X4441Y3987D01*
X4439Y3988D01*
X4432Y3990D01*
X4424Y3992D01*
X4412Y3993D01*
X4410Y3993D01*
X4407Y3993D01*
X4351D01*
Y4222D01*
X4347Y4242D01*
X4336Y4259D01*
X4320Y4270D01*
X4300Y4273D01*
X4258D01*
Y4295D01*
X4233D01*
Y4353D01*
X4067D01*
Y4295D01*
X4042D01*
Y4273D01*
X3784Y4273D01*
X3771Y4286D01*
Y4400D01*
X3767Y4420D01*
X3756Y4436D01*
X3740Y4447D01*
X3720Y4451D01*
X3254Y4451D01*
D02*
G37*
G36*
X5178Y3410D02*
Y3362D01*
X5225D01*
X5214Y3382D01*
X5197Y3399D01*
X5178Y3410D01*
D02*
G37*
G36*
X4928Y3402D02*
X4908Y3391D01*
X4891Y3375D01*
X4880Y3355D01*
X4928D01*
Y3402D01*
D02*
G37*
G36*
X5108Y3410D02*
X5088Y3399D01*
X5071Y3382D01*
X5060Y3362D01*
X5058Y3356D01*
X5048Y3355D01*
X5045Y3355D01*
X5034Y3375D01*
X5017Y3391D01*
X4997Y3402D01*
Y3320D01*
Y3238D01*
X5017Y3249D01*
X5034Y3265D01*
X5045Y3286D01*
X5047Y3292D01*
X5057Y3293D01*
X5060Y3292D01*
X5071Y3273D01*
X5088Y3256D01*
X5108Y3245D01*
Y3328D01*
Y3410D01*
D02*
G37*
G36*
X4313Y3422D02*
X4245D01*
Y3312D01*
X4313D01*
Y3422D01*
D02*
G37*
G36*
X4175D02*
X4107D01*
Y3312D01*
X4175D01*
Y3422D01*
D02*
G37*
G36*
X5225Y3292D02*
X5178D01*
Y3245D01*
X5197Y3256D01*
X5214Y3273D01*
X5225Y3292D01*
D02*
G37*
G36*
X4928Y3285D02*
X4880D01*
X4891Y3265D01*
X4908Y3249D01*
X4928Y3238D01*
Y3285D01*
D02*
G37*
%LPD*%
G36*
X4300Y3945D02*
X4303Y3942D01*
X4407D01*
X4420Y3941D01*
Y3901D01*
X4635D01*
Y3866D01*
X4670D01*
Y3791D01*
X4838D01*
X4838Y3560D01*
X4312Y3560D01*
Y3601D01*
X4108D01*
Y3560D01*
X3772Y3560D01*
X3772Y4222D01*
X4067Y4222D01*
Y4203D01*
X4233D01*
Y4222D01*
X4300D01*
Y3945D01*
D02*
G37*
G36*
X3720Y4400D02*
Y3570D01*
X3584D01*
X3583Y3582D01*
X3583Y3583D01*
Y3733D01*
X3382D01*
Y3583D01*
X3381Y3570D01*
X3297D01*
Y3853D01*
X3242D01*
Y4388D01*
X3254Y4400D01*
X3720Y4400D01*
D02*
G37*
%LPC*%
G36*
X4233Y4133D02*
X4185D01*
Y4065D01*
X4233D01*
Y4133D01*
D02*
G37*
G36*
X4115D02*
X4067D01*
Y4065D01*
X4115D01*
Y4133D01*
D02*
G37*
G36*
X4003Y3953D02*
X3938D01*
Y3803D01*
X4003D01*
Y3953D01*
D02*
G37*
G36*
X3867D02*
X3802D01*
Y3803D01*
X3867D01*
Y3953D01*
D02*
G37*
G36*
X4313Y3908D02*
X4245D01*
Y3797D01*
X4313D01*
Y3908D01*
D02*
G37*
G36*
X4175D02*
X4107D01*
Y3797D01*
X4175D01*
Y3908D01*
D02*
G37*
G36*
X4600Y3831D02*
X4420D01*
Y3791D01*
X4600D01*
Y3831D01*
D02*
G37*
G36*
X4313Y3728D02*
X4245D01*
Y3617D01*
X4313D01*
Y3728D01*
D02*
G37*
G36*
X4175D02*
X4107D01*
Y3617D01*
X4175D01*
Y3728D01*
D02*
G37*
G36*
X4003Y3733D02*
X3938D01*
Y3582D01*
X4003D01*
Y3733D01*
D02*
G37*
G36*
X3867D02*
X3802D01*
Y3582D01*
X3867D01*
Y3733D01*
D02*
G37*
G36*
X3500Y4230D02*
X3435D01*
Y4135D01*
X3500D01*
Y4230D01*
D02*
G37*
G36*
X3365D02*
X3300D01*
Y4135D01*
X3365D01*
Y4230D01*
D02*
G37*
G36*
X3500Y4065D02*
X3435D01*
Y3970D01*
X3500D01*
Y4065D01*
D02*
G37*
G36*
X3365D02*
X3300D01*
Y3970D01*
X3365D01*
Y4065D01*
D02*
G37*
G36*
X3583Y3953D02*
X3517D01*
Y3803D01*
X3583D01*
Y3953D01*
D02*
G37*
G36*
X3447D02*
X3382D01*
Y3803D01*
X3447D01*
Y3953D01*
D02*
G37*
%LPD*%
D10*
X5358Y5092D02*
X5542D01*
X5738Y5288D01*
X4618Y5295D02*
Y5395D01*
Y5295D02*
X4634Y5279D01*
X5738Y5288D02*
X5983D01*
X2725Y5415D02*
X2735Y5426D01*
X2715Y5212D02*
X2725Y5222D01*
Y5415D01*
D30*
X4367Y5005D02*
D03*
X4287D02*
D03*
X4618Y5395D02*
D03*
X4537D02*
D03*
D52*
X4367Y5005D02*
X4371Y5002D01*
X4282Y5000D02*
X4287Y5005D01*
X4252Y5000D02*
X4282D01*
X4634Y5279D02*
X4711Y5201D01*
X4892Y5216D02*
X5142D01*
X4801Y5092D02*
X4819Y5110D01*
X4712Y5092D02*
X4801D01*
X4819Y5110D02*
Y5143D01*
X4892Y5216D01*
X4711Y5093D02*
X4712Y5092D01*
X4711Y5093D02*
Y5201D01*
X4371Y5002D02*
X4508D01*
X4511Y4998D01*
X2905Y6495D02*
X2983D01*
X2900Y6500D02*
X2905Y6495D01*
X3517Y4740D02*
X3992D01*
X4252Y5000D01*
X3512Y4735D02*
X3517Y4740D01*
X2745Y6280D02*
Y6495D01*
X2740Y6275D02*
X2745Y6280D01*
Y6495D02*
X2750Y6500D01*
D54*
X4619Y4551D02*
X4726Y4659D01*
X4729D01*
X4619Y4354D02*
Y4551D01*
X4729Y4659D02*
X4862Y4792D01*
X5028D01*
D56*
X2735Y5679D02*
D03*
X2740Y6021D02*
D03*
D57*
X2735Y5426D02*
D03*
X2740Y6275D02*
D03*
D58*
X3090Y7030D02*
D03*
X3100Y3630D02*
D03*
D59*
X2790Y7500D02*
D03*
X3390D02*
D03*
X2800Y4100D02*
D03*
X3400D02*
D03*
D60*
X3933Y4967D02*
D03*
D61*
Y5222D02*
D03*
D62*
X5430Y5378D02*
D03*
X5371Y5437D02*
D03*
Y5319D02*
D03*
X5489D02*
D03*
Y5437D02*
D03*
D63*
X5940Y5760D02*
D03*
Y5580D02*
D03*
X5760Y5760D02*
D03*
Y5580D02*
D03*
X5580Y5760D02*
D03*
X3930Y7188D02*
D03*
X5358Y5092D02*
D03*
X4472Y5397D02*
D03*
X5142Y5216D02*
D03*
X5028Y4792D02*
D03*
X5245Y4788D02*
D03*
X5855Y5110D02*
D03*
X5142Y3328D02*
D03*
X4962Y3320D02*
D03*
X5983Y5288D02*
D03*
X4626Y4777D02*
D03*
X4922Y5100D02*
D03*
X3512Y4735D02*
D03*
X4365Y4755D02*
D03*
X2983Y6495D02*
D03*
D64*
X4210Y3762D02*
D03*
Y3458D02*
D03*
D65*
X4635Y3866D02*
D03*
Y4374D02*
D03*
D66*
X5620Y4120D02*
D03*
D67*
X4511Y4998D02*
D03*
Y5188D02*
D03*
X4711Y5093D02*
D03*
D68*
X4150Y4167D02*
D03*
Y4388D02*
D03*
D69*
X2865Y5212D02*
D03*
X2715D02*
D03*
X2900Y6500D02*
D03*
X2750D02*
D03*
D70*
X3903Y3767D02*
D03*
X3483D02*
D03*
M02*
