M48
;Layer_Color=9474304
;FILE_FORMAT=4:4
METRIC,LZ
;TYPE=PLATED
T1F00S00C0.2032
T2F00S00C0.5000
T3F00S00C0.7112
T4F00S00C0.8000
T5F00S00C0.9000
%
T01
X005371Y0053185
X00543Y0053775
X005371Y0054365
X005489
Y0053185
T02
X00576Y00558
X00594
Y00576
X00576
X00558
T03
X0049625Y00332
X0051425Y0033275
X005245Y0047875
X0050275Y0047925
X0049225Y0051
X0051425Y0052163
X0053575Y0050925
X005855Y00511
X0059825Y0052875
X0044725Y0053975
X004365Y004755
X00462617Y00477658
X0035125Y004735
X0029825Y006495
X00393Y0071875
T04
X002735Y0054255
Y0056795
X00274Y0060205
Y0062745
T05
X0039325Y0049675
Y0052215
M30
