G04*
G04 #@! TF.GenerationSoftware,Altium Limited,Altium Designer,21.1.1 (26)*
G04*
G04 Layer_Color=16711935*
%FSLAX42Y42*%
%MOMM*%
G71*
G04*
G04 #@! TF.SameCoordinates,92C87620-ECAA-41DB-B671-3A6BB777ED9A*
G04*
G04*
G04 #@! TF.FilePolarity,Positive*
G04*
G01*
G75*
%ADD14C,0.10*%
%ADD80R,2.79X0.61*%
D14*
X5347Y5470D02*
G03*
X5347Y5470I-20J0D01*
G01*
X3465Y3718D02*
G03*
X3465Y3817I0J50D01*
G01*
X3920D02*
G03*
X3920Y3718I0J-50D01*
G01*
X2020Y7050D02*
X3460D01*
X2020D02*
Y7950D01*
X3460D01*
Y7050D02*
Y7950D01*
X2030Y3650D02*
X3470D01*
X2030D02*
Y4550D01*
X3470D01*
Y3650D02*
Y4550D01*
X4071Y3385D02*
Y3835D01*
X4349Y3385D02*
Y3835D01*
X4071D02*
X4349D01*
X4071Y3385D02*
X4349D01*
X5375Y4794D02*
Y4890D01*
X5550Y4794D02*
Y4890D01*
X5375D02*
X5550D01*
X5375Y4794D02*
X5550D01*
X4970Y3600D02*
Y4640D01*
X5905Y3600D02*
Y4640D01*
X4970Y3600D02*
X5905D01*
X4970Y4640D02*
X5905D01*
X4546Y4947D02*
Y5239D01*
X4676Y4947D02*
Y5239D01*
X4546Y4947D02*
X4676D01*
X4546Y5239D02*
X4676D01*
X5272Y5220D02*
Y5535D01*
X5588Y5220D02*
Y5535D01*
X5272D02*
X5588D01*
X5272Y5220D02*
X5588D01*
X5095Y4595D02*
X5315D01*
X5095Y4450D02*
X5315D01*
X5095D02*
Y4595D01*
X5315Y4450D02*
Y4595D01*
X4060Y4108D02*
X4240D01*
X4060Y4447D02*
X4240D01*
Y4108D02*
Y4447D01*
X4060Y4108D02*
Y4447D01*
X4790Y4450D02*
X5010D01*
X4790Y4595D02*
X5010D01*
Y4450D02*
Y4595D01*
X4790Y4450D02*
Y4595D01*
X2705Y5260D02*
X2875D01*
X2705Y5165D02*
X2875D01*
Y5260D01*
X2705Y5165D02*
Y5260D01*
X3465Y3817D02*
Y3929D01*
Y3606D02*
Y3718D01*
X3920D02*
X3920Y3606D01*
X3465D02*
X3920D01*
X3920Y3818D02*
X3920Y3929D01*
X3465D02*
X3920D01*
X5112Y3840D02*
X5208D01*
X5112Y3670D02*
X5208D01*
Y3840D01*
X5112Y3670D02*
Y3840D01*
X2740Y6547D02*
X2910D01*
X2740Y6453D02*
X2910D01*
Y6547D01*
X2740Y6453D02*
Y6547D01*
X4721Y4837D02*
Y5176D01*
X4541Y4837D02*
Y5176D01*
X4721D01*
X4541Y4837D02*
X4721D01*
X4462Y4835D02*
Y5175D01*
X4283Y4835D02*
Y5175D01*
X4462D01*
X4283Y4835D02*
X4462D01*
X5808Y4950D02*
X5912D01*
X5808Y5005D02*
X5912D01*
Y4950D02*
Y5005D01*
X5808Y4950D02*
Y5005D01*
X5683Y5147D02*
X5788D01*
X5683Y5092D02*
X5788D01*
X5683D02*
Y5147D01*
X5788Y5092D02*
Y5147D01*
X5946Y5217D02*
Y5362D01*
X5726Y5217D02*
Y5362D01*
Y5217D02*
X5946D01*
X5726Y5362D02*
X5946D01*
X5405Y4587D02*
X5580D01*
X5405Y4683D02*
X5580D01*
Y4587D02*
Y4683D01*
X5405Y4587D02*
Y4683D01*
X5180Y5051D02*
X5355D01*
X5180Y4954D02*
X5355D01*
X5180D02*
Y5051D01*
X5355Y4954D02*
Y5051D01*
D80*
X4210Y3415D02*
D03*
M02*
